<?xml version="1.0" standalone="no"?>
<!DOCTYPE svg PUBLIC "-//W3C//DTD SVG 1.1//EN" "http://www.w3.org/Graphics/SVG/1.1/DTD/svg11.dtd" >
<!--
2013-9-30: Created.
-->
<svg>
<metadata>
Created by iconfont
</metadata>
<defs>

<font id="iconfont" horiz-adv-x="1024" >
  <font-face
    font-family="iconfont"
    font-weight="500"
    font-stretch="normal"
    units-per-em="1024"
    ascent="896"
    descent="-128"
  />
    <missing-glyph />
    
    <glyph glyph-name="share" unicode="&#58943;" d="M658.26816 419.74656c55.64416 0 100.90496 45.2608 100.90496 100.88448 0 55.64416-45.2608 100.90496-100.90496 100.90496-55.62368 0-100.88448-45.2608-100.88448-100.90496 0-13.08672 2.68288-25.4976 7.24992-36.98688l-200.41728-116.24448c-18.28864 18.432-43.60192 29.88032-71.53664 29.88032-55.62368 0-100.88448-45.2608-100.88448-100.88448 0-55.64416 45.2608-100.90496 100.88448-100.90496 28.3648 0 53.94432 11.8784 72.2944 30.80192l198.73792-125.25568c-3.85024-10.67008-6.30784-21.99552-6.30784-33.97632 0-55.62368 45.2608-100.88448 100.88448-100.88448 55.64416 0 100.90496 45.2608 100.90496 100.88448 0 55.64416-45.2608 100.90496-100.90496 100.90496-28.91776 0-54.84544-12.3904-73.25696-31.9488l-198.22592 124.94848c4.17792 11.07968 6.7584 22.9376 6.7584 35.45088 0 12.92288-2.6624 25.16992-7.10656 36.53632l200.6016 116.34688C605.2864 431.03104 630.4768 419.74656 658.26816 419.74656zM658.26816 126.98496c33.05472 0 59.94496-26.89024 59.94496-59.94496 0-33.03424-26.89024-59.92448-59.94496-59.92448-33.03424 0-59.92448 26.89024-59.92448 59.92448 0 11.01824 3.19488 21.21728 8.3968 30.08512 0.16384 0.22528 0.36864 0.38912 0.53248 0.63488 0.22528 0.34816 0.22528 0.75776 0.43008 1.10592C618.2912 115.70048 636.928 126.98496 658.26816 126.98496zM292.6592 236.43008c-33.03424 0-59.92448 26.89024-59.92448 59.94496 0 33.03424 26.89024 59.92448 59.92448 59.92448 19.53792 0 36.7616-9.54368 47.7184-24.064 0.28672-0.65536 0.3072-1.35168 0.67584-1.96608 0.96256-1.67936 2.1504-3.13344 3.4816-4.42368 4.97664-8.74496 8.06912-18.69824 8.06912-29.45024 0-11.75552-3.52256-22.67136-9.40032-31.92832-0.04096-0.06144-0.1024-0.08192-0.14336-0.14336-0.08192-0.12288-0.06144-0.24576-0.14336-0.36864C332.20608 247.42784 313.73312 236.43008 292.6592 236.43008zM658.26816 580.55552c33.05472 0 59.94496-26.89024 59.94496-59.94496 0-33.03424-26.89024-59.92448-59.94496-59.92448-33.03424 0-59.92448 26.89024-59.92448 59.92448C598.34368 553.68576 625.21344 580.55552 658.26816 580.55552z"  horiz-adv-x="1024" />

    
    <glyph glyph-name="fenxiang" unicode="&#58901;" d="M894.739692 812c-85.963487 0-155.648-70.445949-155.648-157.302154 0-15.071179 2.205538-29.643487 6.117744-43.428103l-454.761026-192.774564c-26.912821 47.104-77.141333 78.900513-134.80041 78.900513-85.937231 0-155.648-70.445949-155.648-157.407179 0-87.171282 69.710769-157.590974 155.648-157.590974 45.029744 0 85.517128 19.456 113.926564 50.386051l293.100308-212.992c-11.395282-21.897846-17.906872-46.841436-17.906872-73.334154 0-86.908718 69.421949-157.32841 155.359179-157.32841 85.937231 0 155.648 70.445949 155.648 157.32841 0 86.856205-69.710769 157.275897-155.648 157.275897-45.71241 0-86.724923-20.059897-115.108103-51.777641L292.391385 264.553846c12.051692 22.370462 18.904615 48.075487 18.904615 75.40841 0 14.677333-2.126769 28.803282-5.828923 42.246564l455.102359 192.932103c27.044103-46.473846 76.905026-77.771487 134.144-77.771487 85.963487 0 155.648 70.445949 155.648 157.32841C1050.387692 741.554051 980.703179 812 894.739692 812L894.739692 812zM700.153436 64.374974c64.380718 0 116.736-52.906667 116.736-117.970051 0-65.063385-52.355282-117.996308-116.736-117.996308s-116.630974 52.932923-116.630974 117.996308C583.522462 11.468308 635.798974 64.374974 700.153436 64.374974L700.153436 64.374974zM155.674256 221.677128c-64.380718 0-116.736 52.906667-116.736 118.285128 0 65.142154 52.355282 118.075077 116.736 118.075077 64.380718 0 116.736-52.906667 116.736-118.075077C272.410256 274.636308 220.054974 221.677128 155.674256 221.677128L155.674256 221.677128zM894.739692 536.675282c-64.380718 0-116.736 52.932923-116.736 117.996308s52.355282 117.970051 116.736 117.970051c64.380718 0 116.736-52.906667 116.736-117.970051S959.12041 536.675282 894.739692 536.675282L894.739692 536.675282z"  horiz-adv-x="1051" />

    
    <glyph glyph-name="552cc62440096" unicode="&#58906;" d="M768.704 192.384c-35.648 0-67.904-14.72-91.136-38.304l-309.152 171.712c9.056 17.568 14.688 37.184 14.688 58.272 0 12.576-2.368 24.48-5.76 35.936l304.608 189.152c22.688-20.416 52.384-33.184 85.216-33.184 70.592 0 128 57.408 128 128s-57.408 128-128 128-128-57.408-128-128c0-14.56 2.976-28.352 7.456-41.408l-301.824-187.392c-23.136 22.784-54.784 36.928-89.728 36.928-70.592 0-128-57.408-128-128 0-70.592 57.408-128 128-128 25.664 0 49.504 7.744 69.568 20.8l321.216-178.4c-3.04-10.944-5.184-22.208-5.184-34.08 0-70.592 57.408-128 128-128s128 57.408 128 128S839.328 192.384 768.704 192.384zM767.2 767.968c35.296 0 64-28.704 64-64s-28.704-64-64-64-64 28.704-64 64S731.904 767.968 767.2 767.968zM191.136 384.064c0 35.296 28.704 64 64 64s64-28.704 64-64c0-35.296-28.704-64-64-64S191.136 348.768 191.136 384.064zM768.704 0.384c-35.296 0-64 28.704-64 64s28.704 64 64 64 64-28.704 64-64S804 0.384 768.704 0.384z"  horiz-adv-x="1024" />

    
    <glyph glyph-name="fenxiang1" unicode="&#58899;" d="M788.591991 638.499321c-53.28253 0-96.631828 43.348274-96.631828 96.629781 0 53.279461 43.348274 96.627734 96.631828 96.627734 53.279461 0 96.630804-43.348274 96.630804-96.627734C885.222795 681.846572 841.871451 638.499321 788.591991 638.499321zM788.591991 783.441435c-26.641777 0-48.316425-21.673625-48.316425-48.312332 0-26.641777 21.674649-48.315402 48.316425-48.315402 26.63973 0 48.314379 21.673625 48.314379 48.315402C836.906369 761.766786 815.231721 783.441435 788.591991 783.441435zM232.974587 300.297646c-53.280484 0-96.627734 43.347251-96.627734 96.628758 0 53.281507 43.347251 96.628758 96.627734 96.628758 53.281507 0 96.629781-43.346227 96.629781-96.628758C329.604368 343.644897 286.256094 300.297646 232.974587 300.297646zM232.974587 445.240783c-26.638707 0-48.314379-21.674649-48.314379-48.314379s21.675672-48.315402 48.314379-48.315402c26.640754 0 48.314379 21.674649 48.314379 48.315402S259.615341 445.240783 232.974587 445.240783zM788.591991-62.060195c-53.28253 0-96.631828 43.347251-96.631828 96.628758 0 53.283554 43.348274 96.629781 96.631828 96.629781 53.279461 0 96.630804-43.345204 96.630804-96.629781C885.222795-18.712945 841.871451-62.060195 788.591991-62.060195zM788.591991 82.880895c-26.641777 0-48.316425-21.672602-48.316425-48.313356s21.674649-48.315402 48.316425-48.315402c26.63973 0 48.314379 21.674649 48.314379 48.315402S815.231721 82.880895 788.591991 82.880895zM720.855362 709.536528l24.848611-41.435289-446.435729-267.726091-24.848611 41.435289 446.435729 267.726091ZM300.331414 392.782537l442.03461-297.210884-26.959423-40.096103-442.03461 297.210884 26.959423 40.096103Z"  horiz-adv-x="1024" />

    
    <glyph glyph-name="sousuo" unicode="&#59024;" d="M994.795776-34.556601l-11.677429 11.682755L741.717796 234.098829c54.509759 70.081883 89.550035 155.741217 89.550035 253.075317C831.267831 713.003904 648.273066 896 422.449965 896 192.732169 892.103973 13.626774 709.107877 13.626774 487.175477c0-221.925742 182.996096-408.816534 408.823191-408.816534 85.654008 0 167.417314 27.254879 233.608497 73.97791l245.296578-260.868702c0 0 0-3.890701 3.890701-3.890701 11.681423-11.682755 23.364178-15.577451 42.83233-15.577451 35.040276 0 62.295155 27.253548 62.295155 62.300481C1006.477199-57.915454 1002.586498-46.232699 994.795776-34.556601L994.795776-34.556601zM418.553938 167.908978c-175.209368 0-319.273157 144.062457-319.273157 319.273157 0 175.209368 144.063788 319.269162 319.273157 319.269162 175.209368 0 319.269162-144.059794 319.269162-319.269162C737.8231 311.971435 593.763307 167.908978 418.553938 167.908978L418.553938 167.908978zM418.553938 167.908978"  horiz-adv-x="1024" />

    
    <glyph glyph-name="sousuo1" unicode="&#58923;" d="M688.565345 242.099153c0 0-11.672854-15.440667-27.297716-30.575366l179.917696-176.300308 29.860075 27.91784L688.565345 242.099153 688.565345 242.099153zM752.457514 433.213865c0-175.017082-134.816498-306.400389-301.919331-306.400389C276.296767 129.344113 149.950174 266.551054 149.950174 432.978505c0 160.758334 135.995347 296.318776 300.588009 296.318776C617.641015 729.29728 752.457514 591.974705 752.457514 433.213865L752.457514 433.213865zM449.439152 689.132512c-143.231145 0-259.32421-116.181069-259.32421-261.075087 0-144.898111 116.093065-261.882476 259.32421-261.882476 143.250588 0 262.8495 116.984365 262.8495 261.882476C712.288652 572.951443 592.68974 689.132512 449.439152 689.132512L449.439152 689.132512zM449.439152 689.132512"  horiz-adv-x="1024" />

    
    <glyph glyph-name="fenxiang2" unicode="&#59101;" d="M803.407418 251.466498c-50.204425 0-94.868671-21.700231-123.425054-55.405891L370.813932 336.323141c3.834328 12.397355 5.889127 25.479301 5.889127 39.002292 0 17.260106-3.342118 33.80185-9.469676 49.118698L684.66706 568.376241c28.636201-30.679743 71.198575-50.13791 118.735242-50.13791 86.22071 0 156.11457 63.98529 156.11457 142.911874 0 78.9317-69.89386 142.91699-156.109454 142.91699-86.22071 0-156.113547-63.98529-156.113547-142.911874 0-14.052041 2.222621-27.620058 6.349615-40.448224L332.403111 475.046622c-28.357861 26.641777-67.970044 43.191708-111.813598 43.191708-86.214571 0-156.10843-63.98529-156.10843-142.912897 0-78.9317 69.89386-142.915967 156.10843-142.915967 48.4075 0 91.668793 20.172435 120.3009 51.833529l311.017546-141.104715c-3.007497-11.073196-4.613064-22.660092-4.613064-34.588773 0-78.926584 69.892837-142.911874 156.10843-142.911874 86.22071 0 156.11457 63.98529 156.11457 142.911874C959.516872 187.482231 889.623012 251.466498 803.407418 251.466498M803.407418 746.901217c51.730175 0 93.66424-38.390355 93.66424-85.745896 0-47.360657-41.934065-85.751013-93.66424-85.751013-1.300622 0-2.597151 0.032746-3.883447 0.078795-0.183172 0.008186-0.364297 0.014326-0.547469 0.01842-1.224898 0.055259-2.445702 0.12996-3.65525 0.223081-0.223081 0.01842-0.446162 0.036839-0.668219 0.055259-1.210571 0.102331-2.409886 0.226151-3.605108 0.370437-0.184195 0.019443-0.364297 0.046049-0.541329 0.069585-1.251503 0.157589-2.496867 0.328481-3.727904 0.532119-0.017396 0.00614-0.035816 0.00614-0.051165 0.011256-1.235131 0.203638-2.466168 0.434905-3.681856 0.680499-0.151449 0.027629-0.298805 0.057305-0.450255 0.089028-1.174756 0.245593-2.344395 0.5137-3.505847 0.796132-0.191358 0.047072-0.378623 0.093121-0.571005 0.144286-1.156336 0.287549-2.299369 0.597611-3.433192 0.927115-0.156566 0.045025-0.309038 0.093121-0.460488 0.134053-1.184989 0.353041-2.364861 0.718361-3.530406 1.108241-0.004093 0.004093-0.014326 0.004093-0.019443 0.00921-1.184989 0.398066-2.360767 0.824785-3.524267 1.26583-0.097214 0.037862-0.192382 0.068562-0.293689 0.106424-1.119497 0.431835-2.223644 0.88209-3.321652 1.348718-0.147356 0.065492-0.298805 0.125867-0.446162 0.191358-1.084705 0.468674-2.162246 0.954745-3.225461 1.465374-0.121773 0.055259-0.239454 0.11461-0.360204 0.170892-2.238994 1.080611-4.430916 2.234901-6.557346 3.472078-0.051165 0.027629-0.102331 0.057305-0.152473 0.083911-1.037632 0.606821-2.055822 1.227967-3.062755 1.867534-0.11154 0.069585-0.223081 0.141216-0.334621 0.213871-0.992607 0.63445-1.969864 1.283226-2.931772 1.951445-0.096191 0.064468-0.192382 0.13303-0.289596 0.203638-0.986467 0.690732-1.963725 1.399883-2.920516 2.128477-16.888645 12.817933-28.768207 30.962176-32.587186 51.621704-0.424672 2.284019-0.74906 4.603855-0.967024 6.948249-0.010233 0.093121-0.020466 0.190335-0.029676 0.287549-0.096191 1.093914-0.177032 2.192945-0.229221 3.302209-0.00921 0.174985-0.014326 0.352017-0.019443 0.522909-0.051165 1.112334-0.080841 2.225691-0.080841 3.347235C709.739085 708.510862 751.674173 746.901217 803.407418 746.901217M220.589512 289.574421c-51.728128 0-93.66424 38.391379-93.66424 85.752036 0 47.357588 41.935088 85.74692 93.66424 85.74692 51.733245 0 93.669356-38.389332 93.669356-85.74692C314.258868 327.964776 272.322757 289.574421 220.589512 289.574421M803.407418 22.803611c-51.734268 0-93.668333 38.391379-93.668333 85.74692 0 1.36509 0.039909 2.715855 0.106424 4.061502 0 0.023536 0 0.041956 0.005117 0.064468 0.065492 1.348718 0.178055 2.698458 0.313132 4.031826 2.432399 23.583115 15.294334 44.38079 34.314527 58.492182l0.005117 0.005117c1.14508 0.848321 2.314719 1.678222 3.504824 2.475378 0.010233 0.004093 0.010233 0.00921 0.01535 0.014326 1.190105 0.797156 2.39556 1.566682 3.626597 2.317789 0.010233 0.005117 0.019443 0.01535 0.034792 0.021489 1.219781 0.741897 2.461051 1.458211 3.722788 2.14792 0.020466 0.01535 0.039909 0.026606 0.061398 0.033769 1.25048 0.687662 2.52552 1.344624 3.816932 1.980097l0.086981 0.042979c1.281179 0.623193 2.581802 1.226944 3.903913 1.802042 0.034792 0.014326 0.075725 0.031722 0.110517 0.046049 1.311879 0.574075 2.638083 1.115404 3.985778 1.62808 0.046049 0.013303 0.091074 0.034792 0.137123 0.051165 1.341554 0.509606 2.694365 0.992607 4.061502 1.444908l0.161682 0.053212c1.367137 0.448208 2.745531 0.870834 4.136204 1.260713 0.062422 0.017396 0.122797 0.031722 0.179079 0.050142 1.390673 0.391926 2.793626 0.751107 4.212952 1.081635 0.065492 0.013303 0.125867 0.026606 0.192382 0.040932 1.418302 0.328481 2.845815 0.62524 4.288676 0.896416 0.061398 0.01228 0.121773 0.021489 0.183172 0.029676 1.447978 0.267083 2.907213 0.500397 4.379751 0.706081 0.056282 0.010233 0.11154 0.01228 0.167822 0.021489 1.477654 0.204661 2.966565 0.378623 4.470825 0.515746 0.040932 0.005117 0.085958 0.005117 0.130983 0.01228 1.51347 0.1361 3.044336 0.242524 4.579295 0.312108l0.075725 0.005117c1.553379 0.068562 3.123131 0.107447 4.699022 0.107447 51.730175 0 93.66424-38.391379 93.66424-85.752036C897.072681 61.19499 855.137593 22.803611 803.407418 22.803611"  horiz-adv-x="1024" />

    
    <glyph glyph-name="iconfontsousuo1" unicode="&#58950;" d="M751.924531 236.516045c0 0-14.597018-19.314893-34.143027-38.246093l225.047552-220.522496 37.352243 34.920346L751.924531 236.516045zM831.845888 475.573658c0-218.921062-168.635494-383.259853-377.654374-383.259853C236.24192 95.476736 78.201242 267.103642 78.201242 475.276902c0 201.086874 170.110157 370.649702 375.990374 370.649702C663.210394 845.926605 831.845888 674.156442 831.845888 475.573658zM452.816179 795.686298c-179.1616 0-324.372685-145.326899-324.372685-326.566707 0-181.240832 145.211085-327.570534 324.372685-327.570534 179.186176 0 328.787456 146.329702 328.787456 327.570534C781.603635 650.360422 632.002458 795.686298 452.816179 795.686298z"  horiz-adv-x="1024" />

    
    <glyph glyph-name="fenxiang3" unicode="&#58900;" d="M146.663314 260.876822c0-98.298793 79.687924-177.979554 177.972391-177.979554 69.648266 0 129.921002 39.997969 159.170163 98.277304L655.223982 150.981922l-0.061398-4.516874c0-70.220295 56.919361-127.129422 127.125329-127.129422 70.206992 0 127.126352 56.908104 127.126352 127.129422 0 70.217225-56.919361 127.122259-127.126352 127.122259-50.91153 0-94.807273-29.883611-115.118877-73.093738l-167.226652 29.435403c1.76418 10.038634 2.671852 20.395516 2.671852 30.947849 0 46.465265-17.820877 88.76465-46.964638 120.445186l154.6318 154.650219c13.953803-5.262864 29.077246-8.129144 44.880163-8.129144 70.205968 0 127.125329 56.905034 127.125329 127.122259s-56.919361 127.125329-127.125329 127.125329-127.125329-56.908104-127.125329-127.125329c0-35.657104 14.686491-67.86976 38.324864-90.962711L415.972946 413.613458c-26.708292 16.012695-57.929364 25.239847-91.337241 25.239847C226.351238 438.849212 146.663314 359.172545 146.663314 260.876822L146.663314 260.876822 146.663314 260.876822z"  horiz-adv-x="1024" />

    
    <glyph glyph-name="fenxiang4" unicode="&#58946;" d="M868.173913 177.291925c-44.521739 0-89.043478-19.080745-114.484472-57.242236L302.111801 349.018634c0 12.720497 6.360248 25.440994 6.360248 38.161491 0 12.720497 0 25.440994-6.360248 38.161491l451.57764 228.968944c25.440994-38.161491 69.962733-57.242236 114.484472-57.242236 82.68323 0 152.645963 69.962733 152.645963 152.645963C1020.819876 826.037267 950.857143 896 868.173913 896s-152.645963-69.962733-152.645963-152.645963c0-12.720497 0-25.440994 6.360248-38.161491L270.310559 482.583851C244.869565 514.385093 200.347826 539.826087 155.826087 539.826087 73.142857 539.826087 3.180124 469.863354 3.180124 387.180124s69.962733-152.645963 152.645963-152.645963c44.521739 0 89.043478 19.080745 114.484472 57.242236l451.57764-228.968944c0-12.720497-6.360248-25.440994-6.360248-38.161491 0-82.68323 69.962733-152.645963 152.645963-152.645963s152.645963 69.962733 152.645963 152.645963C1020.819876 113.689441 950.857143 177.291925 868.173913 177.291925zM868.173913 832.397516C919.055901 832.397516 957.217391 794.236025 957.217391 743.354037s-38.161491-89.043478-89.043478-89.043478c-31.801242 0-63.602484 19.080745-76.322981 50.881988 0 0 0 0 0 0 0 0 0 0 0 0-6.360248 12.720497-6.360248 25.440994-6.360248 38.161491C785.490683 794.236025 823.652174 832.397516 868.173913 832.397516zM155.826087 298.136646C104.944099 298.136646 66.782609 336.298137 66.782609 387.180124c0 50.881988 38.161491 89.043478 89.043478 89.043478 31.801242 0 63.602484-19.080745 76.322981-50.881988 0 0 0 0 0 0 0 0 0 0 0 0C238.509317 412.621118 244.869565 399.900621 244.869565 387.180124c0-12.720497 0-25.440994-6.360248-38.161491 0 0 0 0 0 0 0 0 0 0 0 0C219.428571 317.217391 187.627329 298.136646 155.826087 298.136646zM868.173913-58.037267c-50.881988 0-89.043478 38.161491-89.043478 89.043478 0 12.720497 0 25.440994 6.360248 38.161491 12.720497 31.801242 44.521739 50.881988 76.322981 50.881988 50.881988 0 89.043478-38.161491 89.043478-89.043478C957.217391-19.875776 919.055901-58.037267 868.173913-58.037267z"  horiz-adv-x="1024" />

    
    <glyph glyph-name="sousuo2" unicode="&#58981;" d="M733.044372 210.053296c0 0-14.44499-19.171642-33.878598-37.905308l223.233224-218.768539 37.030381 34.666544L733.044372 210.053296zM812.269761 447.205531c0-217.192647-167.293167-380.196115-374.680495-380.196115-216.229716 3.151783-373.017622 173.420725-373.017622 379.933125 0 199.508893 168.781054 367.67801 373.017622 367.67801C645.063575 814.620551 812.269761 644.263605 812.269761 447.205531zM436.275341 764.809075c-177.798429 0-321.718259-144.181797-321.718259-323.994092s144.094816-324.957023 321.80524-324.957023c177.798429 0 326.182944 145.144728 326.182944 324.957023S613.986789 764.809075 436.275341 764.809075z"  horiz-adv-x="1024" />

    
    <glyph glyph-name="sousuo3" unicode="&#58885;" d="M700.396811 722.307076c-145.344273 145.349389-381.004527 145.349389-526.3488 0-145.349389-145.344273-145.349389-380.99941 0-526.3488 132.475174-132.48029 339.960739-144.187937 485.723543-35.168987l215.646432-215.646432c8.752338-8.752338 23.078625-8.752338 31.830963 0l43.963281 43.963281c8.756431 8.757454 8.756431 23.078625 0 31.830963l-215.641315 215.646432C844.584748 382.34736 832.876078 589.831902 700.396811 722.307076L700.396811 722.307076zM647.76408 248.591007c-116.278283-116.276237-304.807101-116.276237-421.085384 0.005117-116.276237 116.278283-116.276237 304.801984 0 421.079244 116.278283 116.276237 304.807101 116.276237 421.085384 0C764.04134 553.398108 764.04134 364.868267 647.76408 248.591007L647.76408 248.591007zM647.76408 248.591007"  horiz-adv-x="1024" />

    
    <glyph glyph-name="chuyidong" unicode="&#58903;" d="M512 431.734l-174.946 174.986c-6.108 6.108-14.546 9.886-23.867 9.886-18.641 0-33.753-15.112-33.753-33.753 0-9.321 3.778-17.759 9.886-23.867l174.907-174.986-174.986-174.946c-6.108-6.108-9.886-14.546-9.886-23.867 0-18.641 15.112-33.753 33.753-33.753 9.321 0 17.759 3.778 23.867 9.886l175.025 174.907 174.946-174.986c6.108-6.108 14.546-9.886 23.867-9.886 18.641 0 33.753 15.112 33.753 33.753 0 9.321-3.778 17.759-9.886 23.867l-174.907 175.025 174.986 174.946c6.108 6.108 9.886 14.546 9.886 23.867 0 18.641-15.112 33.753-33.753 33.753-9.321 0-17.759-3.778-23.867-9.886l-175.025-174.907z"  horiz-adv-x="1024" />

    
    <glyph glyph-name="chuyidong1-copy" unicode="&#58880;" d="M512 431.734154L337.053538 606.72a33.752615 33.752615 0 1 1-47.734153-47.734154L464.226462 384l-174.985847-174.946462a33.752615 33.752615 0 1 1 47.734154-47.734153L512 336.22646199999997l174.946462-174.985847a33.752615 33.752615 0 1 1 47.734153 47.734154L559.773538 384l174.985847 174.946462a33.752615 33.752615 0 1 1-47.734154 47.734153L512 431.773538z"  horiz-adv-x="1024" />

    
    <glyph glyph-name="fenxiang5" unicode="&#58916;" d="M515.696751-76.245487h-277.256318c-59.148014 0-88.722022 29.574007-88.722021 88.722021V513.386282c0 48.057762 24.028881 73.935018 72.086642 73.935018h140.476534c14.787004 0 16.635379-5.545126 16.63538-18.483755 0-44.361011 1.848375-44.361011-42.512636-44.361011h-92.418772c-20.33213 0-31.422383-7.393502-31.422383-29.574007v-482.425993c0-18.483755 7.393502-29.574007 25.877256-29.574007 9.241877 0 18.483755-1.848375 25.877257-1.848375H761.530686c51.754513 0 55.451264 3.696751 55.451263 53.602888V480.115523c0 40.66426-1.848375 42.512635-44.36101 42.512636h-105.357401c-14.787004 0-18.483755 5.545126-18.483755 18.483754 0 42.512635 0 42.512635 42.512636 42.512636h110.902527c40.66426 0 70.238267-27.725632 73.935018-66.541517 1.848375-9.241877 1.848375-18.483755 1.848375-29.574007v-484.274368c0-53.602888-31.422383-85.025271-85.02527-85.025271-90.570397 5.545126-182.98917 5.545126-277.256318 5.545127zM487.971119 727.797834c-20.33213-18.483755-36.967509-31.422383-51.754513-44.361011-20.33213-16.635379-22.180505-14.787004-48.057761 11.090253-14.787004 16.635379-9.241877 24.028881 3.696751 36.967509 36.967509 36.967509 83.176895 64.693141 116.447653 107.205776 9.241877 11.090253 14.787004 9.241877 24.028881 0 38.815884-40.66426 77.631769-79.480144 118.296029-118.296029 11.090253-11.090253 12.938628-16.635379 0-25.877256-3.696751-1.848375-5.545126-5.545126-9.241877-9.241877-14.787004-14.787004-29.574007-22.180505-46.209387 0-11.090253 16.635379-27.725632 29.574007-42.512635 44.36101-7.393502-11.090253-5.545126-18.483755-5.545126-27.725631v-419.581228c0-22.180505-3.696751-29.574007-27.725632-27.725632-33.270758 1.848375-35.119134 0-35.119134 35.119134V698.223827c3.696751 7.393502 3.696751 16.635379 3.696751 29.574007z"  horiz-adv-x="1031" />

    
    <glyph glyph-name="shanchu" unicode="&#58922;" d="M731.918 715.466H293.285c-40.383 0-73.106-32.72-73.106-73.103v-24.368h584.844v24.368c0.001 40.383-32.72 73.103-73.105 73.103m-127.696 48.735l10.756-76.91H410.225l10.756 76.91h183.24m5.855 48.735H415.128c-20.108 0-38.813-16.277-41.621-36.218L359.252 674.75c-2.784-19.917 11.4-36.194 31.508-36.194h243.685c20.108 0 34.293 16.276 31.484 36.217l-14.255 101.969c-2.786 19.917-21.49 36.194-41.598 36.194m134.026-243.675H281.1c-26.795 0-46.761-21.845-44.334-48.544l39.933-438.996c2.403-26.7 26.344-48.544 53.14-48.544h365.527c26.795 0 50.736 21.845 53.14 48.544l39.932 438.996c2.426 26.699-17.54 48.544-44.336 48.544M415.128 130.647h-73.106L317.653 471.79h97.474v-341.144z m146.211 0h-97.474V471.79h97.474v-341.144z m121.842 0h-73.106V471.79h97.474l-24.368-341.144z"  horiz-adv-x="1024" />

    
    <glyph glyph-name="shanchu1" unicode="&#59443;" d="M911.104-39.808c-8.32 0-16.64 3.2-22.976 9.536L105.472 752.384a32.448 32.448 0 1 0 45.952 45.888l782.656-782.656a32.576 32.576 0 0 0-22.976-55.424M128.448-39.808a32.448 32.448 0 0 0-22.976 55.424L888.128 798.272a32.576 32.576 0 0 0 46.016-45.888L151.424-30.272a32.448 32.448 0 0 0-22.976-9.536"  horiz-adv-x="1024" />

    
    <glyph glyph-name="fenxiang6" unicode="&#58947;" d="M940.416 488.576c13.056-14.4 19.584-28.608 19.584-42.624a47.488 47.488 0 0 0-17.792-38.272c-11.84-9.856-26.304-20.928-43.52-33.28-26.112-19.776-53.76-40.512-82.688-62.336-29.056-21.76-56.64-42.368-82.752-61.696-26.176-19.392-49.28-36.224-69.248-50.624-20.032-14.4-34.112-24.064-42.24-28.992-27.008-16.448-47.872-22.4-62.592-17.92-14.72 4.48-24.064 13.376-28.16 26.56V322.56H526.08c-62.08 0-116.48-6.784-163.008-20.352a359.04 359.04 0 0 1-122.56-61.76 410.624 410.624 0 0 1-91.968-102.4 825.344 825.344 0 0 1-71.04-141.376c-2.496 1.664-4.928 6.208-7.36 13.568a212.928 212.928 0 0 0-4.288 28.416 557.952 557.952 0 0 0-1.856 51.84c0 69.12 10.432 133.76 31.232 193.792A476.032 476.032 0 0 0 184.704 441.6c38.848 44.8 85.824 80 140.992 105.536 55.168 25.472 117.056 37.824 185.664 36.992 4.096 0 7.616-0.192 10.432-0.64 2.88-0.384 6.4-0.576 10.432-0.576l-1.28 129.6c1.664 23.04 11.072 39.68 28.224 49.984 17.152 10.24 38.848 5.952 64.96-12.928l44.8-35.84 72.896-57.984a8213.44 8213.44 0 0 0 153.216-124.672c17.152-13.952 32.256-28.16 45.376-42.56z"  horiz-adv-x="1024" />

    
    <glyph glyph-name="location" unicode="&#58881;" d="M512.09668625 563.88658219a99.58288406 99.58288406 0 1 0-70.78783313-29.39494782A99.58288406 99.58288406 0 0 0 512.09668625 563.88658219m0 59.98968937a160.17247031 160.17247031 0 1 1 113.38051313-46.79195812A158.97267656 158.97267656 0 0 1 512.09668625 623.8762715600001zM786.84946344 747.45503156a382.13432062 382.13432062 0 0 1-549.50555344 0 404.33050594 404.33050594 0 0 1 0-562.10338875L512.09668625-96l274.75277719 281.35164281a404.33050594 404.33050594 0 0 1 0 562.10338875z m-41.39288532-522.51019406l-233.35989187-239.95875656-233.35989094 239.95875656a342.54112594 342.54112594 0 0 0 0 476.91802969 325.14411562 325.14411562 0 0 0 466.71978282 0 342.54112594 342.54112594 0 0 0 0-476.91802969z"  horiz-adv-x="1024" />

    
    <glyph glyph-name="fenxiang7" unicode="&#58972;" d="M943.292 514.592l-368.658-375V347.925c-97.346 0-329.695 20.834-329.695-163.25 0-133.75 81.893-269.25 207.777-295.083C250.5-82.95 84.752 56.259 84.752 306.259c0 390.375 422.831 375 489.923 375V889.592l368.617-375z"  horiz-adv-x="1024" />

    
    <glyph glyph-name="fenxiang8" unicode="&#58882;" d="M68-32.8c-25.6 0-46.4 20.8-46.4 46.4V599.2c0 25.6 20.8 46.4 46.4 46.4h249.6v-48H90.4c-11.2 0-20.8-9.6-20.8-20.8V36c0-11.2 9.6-20.8 20.8-20.8h766.4c11.2 0 20.8 9.6 20.8 20.8V217.6h48v-204.8c0-25.6-20.8-46.4-46.4-46.4H68z m180 202.4v1.6C266.4 412 478.4 605.6 741.6 621.6l168.8 1.6-152.8 153.6L792 811.2l209.6-209.6-2.4-2.4 2.4-2.4-210.4-209.6-34.4 34.4 153.6 153.6-165.6-1.6h-1.6c-236.8-15.2-429.6-188-447.2-402.4v-1.6h-48z"  horiz-adv-x="1024" />

    
    <glyph glyph-name="del2" unicode="&#58883;" d="M512 423.33173089L367.84855732 567.515625a27.81129776 27.81129776 0 1 1-39.33173008-39.33173089L472.63581768 384l-144.18389492-144.15144268a27.81129776 27.81129776 0 1 1 39.3317309-39.33173008L512 344.63581767999995l144.15144268-144.18389492a27.81129776 27.81129776 0 1 1 39.33173008 39.3317309L551.36418232 384l144.18389492 144.15144268a27.81129776 27.81129776 0 1 1-39.3317309 39.33173008L512 423.36418232z"  horiz-adv-x="1024" />

    
    <glyph glyph-name="fenxiang9" unicode="&#59015;" d="M946.29888 516.48512l-326.05184-249.91744v159.0784c-151.99744-29.76256-285.51168-111.89248-380.28288-228.2496 44.43136 193.93024 191.52384 347.8784 380.28288 399.73376V767.65184l326.05184-251.16672zM134.61504 56.64256H889.7024V326.2464l53.91872 52.86912v-378.77248H80.69632V764.69248h377.51808v-56.2944H134.61504v-651.75552z"  horiz-adv-x="1027" />

    
    <glyph glyph-name="fenxiang11" unicode="&#58884;" d="M512 301.20000000000005c-13.2 0-23.6 10.4-23.6 23.6 0 201.6 164 365.6 365.6 365.6 13.2 0 23.6-10.4 23.6-23.6 0-13.2-10.4-23.6-23.6-23.6-175.6 0-318.8-142.8-318.8-318.8 0.4-12.4-10-23.2-23.2-23.2zM803.6 506.8c-4 0-8 1.2-12 3.2-11.2 6.4-15.2 21.2-8.4 32.4l72.8 124.8-126.4 73.2c-11.2 6.4-15.2 20.8-8.4 32.4 6.4 11.2 21.2 15.2 32.4 8.4l146.8-85.2c5.6-3.2 9.2-8.4 10.8-14.4 1.6-6 0.8-12.4-2.4-18l-84.8-145.2c-4.4-7.6-12.4-11.6-20.4-11.6zM751.6-16h-479.2c-88.4 0-160.4 72-160.4 160.4V555.2c0 88.4 72 160.4 160.4 160.4h171.2c13.2 0 23.6-10.4 23.6-23.6 0-13.2-10.4-23.6-23.6-23.6h-171.2c-62.4 0-113.2-50.8-113.2-113.2v-410.8c0-62.4 50.8-113.2 113.2-113.2h479.2c62.4 0 113.2 50.8 113.2 113.2v205.2c0 13.2 10.4 23.6 23.6 23.6s23.6-10.4 23.6-23.6v-205.2c0-88.4-72-160.4-160.4-160.4z"  horiz-adv-x="1024" />

    
    <glyph glyph-name="fenxiang10" unicode="&#59110;" d="M937.69728 5.62176a66.80576 66.80576 0 0 0-66.79552-66.816H136.0896a66.80576 66.80576 0 0 0-66.80576 66.816V740.41344A66.816 66.816 0 0 0 136.0896 807.2192h367.39072V874.01472H136.0896C62.30016 874.01472 2.48832 814.20288 2.48832 740.41344v-734.79168C2.48832-68.17792 62.30016-128 136.0896-128h734.81216c73.7792 0 133.60128 59.82208 133.60128 133.62176V406.40512h-66.79552v-400.78336z m65.59744 730.32704L771.91168 869.55008a33.3824 33.3824 0 0 1-45.62944-12.2368 33.3824 33.3824 0 0 1 12.19584-45.60896l124.11904-71.68c-336.31232-4.12672-612.25984-256.70656-653.68064-582.74816-3.49184-5.29408-6.03136-11.25376-6.03136-18.0736a33.36192 33.36192 0 0 1 33.39264-33.40288 33.3824 33.3824 0 0 1 33.40288 33.40288h3.91168c33.26976 300.56448 287.83616 534.39488 597.2992 534.39488 15.2576 0 30.34112-0.84992 45.2608-2.07872L738.47808 568.94464a33.3824 33.3824 0 0 1-12.19584-45.62944 33.40288 33.40288 0 0 1 45.62944-12.2368l231.38304 133.61152a33.37216 33.37216 0 0 1 12.2368 45.6192 33.42336 33.42336 0 0 1-12.2368 45.63968z"  horiz-adv-x="1024" />

    
    <glyph glyph-name="location1" unicode="&#58886;" d="M512.09668625 563.88658219a99.58288406 99.58288406 0 1 0-70.78783313-29.39494782A99.58288406 99.58288406 0 0 0 512.09668625 563.88658219m0 59.98968937a160.17247031 160.17247031 0 1 1 113.38051313-46.79195812A158.97267656 158.97267656 0 0 1 512.09668625 623.8762715600001zM786.84946344 747.45503156a382.13432062 382.13432062 0 0 1-549.50555344 0 404.33050594 404.33050594 0 0 1 0-562.10338875L512.09668625-96l274.75277719 281.35164281a404.33050594 404.33050594 0 0 1 0 562.10338875z m-41.39288532-522.51019406l-233.35989187-239.95875656-233.35989094 239.95875656a342.54112594 342.54112594 0 0 0 0 476.91802969 325.14411562 325.14411562 0 0 0 466.71978282 0 342.54112594 342.54112594 0 0 0 0-476.91802969z"  horiz-adv-x="1024" />

    
    <glyph glyph-name="dingwei" unicode="&#58887;" d="M512.09668625 563.88658219a99.58288406 99.58288406 0 1 0-70.78783313-29.39494782A99.58288406 99.58288406 0 0 0 512.09668625 563.88658219m0 59.98968937a160.17247031 160.17247031 0 1 1 113.38051313-46.79195812A158.97267656 158.97267656 0 0 1 512.09668625 623.8762715600001zM786.84946344 747.45503156a382.13432062 382.13432062 0 0 1-549.50555344 0 404.33050594 404.33050594 0 0 1 0-562.10338875L512.09668625-96l274.75277719 281.35164281a404.33050594 404.33050594 0 0 1 0 562.10338875z m-41.39288532-522.51019406l-233.35989187-239.95875656-233.35989094 239.95875656a342.54112594 342.54112594 0 0 0 0 476.91802969 325.14411562 325.14411562 0 0 0 466.71978282 0 342.54112594 342.54112594 0 0 0 0-476.91802969z"  horiz-adv-x="1024" />

    
    <glyph glyph-name="location2" unicode="&#58888;" d="M512.103132 575.879021a106.221743 106.221743 0 1 0-75.507022-31.354611A106.221743 106.221743 0 0 0 512.103132 575.879021m0 63.989002a170.850635 170.850635 0 1 1 120.939214-49.911422A169.570855 169.570855 0 0 1 512.103132 639.868023zM805.172761 771.685367a407.609942 407.609942 0 0 1-586.139257 0 431.285873 431.285873 0 0 1 0-599.576948L512.103132-128l293.069629 300.108419a431.285873 431.285873 0 0 1 0 599.576948z m-44.152411-557.344207l-248.917218-255.956007-248.917217 255.956007a365.377201 365.377201 0 0 0 0 508.712565 346.82039 346.82039 0 0 0 497.834435 0 365.377201 365.377201 0 0 0 0-508.712565z"  horiz-adv-x="1024" />

    
    <glyph glyph-name="fenxiang12" unicode="&#58889;" d="M747.52 795.648h102.4L340.992 286.72c-18.432-18.432-21.504-50.176-4.096-69.632 10.24-11.264 23.552-17.408 37.888-17.408 13.312 0 25.6 5.12 35.84 14.336l509.952 509.952v-99.328c0-26.624 20.48-50.176 47.104-52.224 29.696-2.048 53.248 21.504 53.248 50.176V845.824c0 27.648-22.528 50.176-50.176 50.176h-225.28c-28.672 0-52.224-24.576-50.176-53.248 2.048-26.624 25.6-47.104 52.224-47.104zM745.472-128H278.528C126.976-128 3.072-4.096 3.072 147.456V620.544C3.072 772.096 126.976 896 278.528 896H532.48c26.624 0 49.152-21.504 49.152-49.152S560.128 797.696 532.48 797.696H278.528c-97.28 0-177.152-79.872-177.152-177.152v-474.112c0-97.28 79.872-177.152 177.152-177.152h466.944c97.28 0 177.152 79.872 177.152 177.152V434.176c0 26.624 21.504 49.152 49.152 49.152s49.152-21.504 49.152-49.152v-287.744c0-150.528-123.904-274.432-275.456-274.432z"  horiz-adv-x="1024" />

    
    <glyph glyph-name="picture-delet" unicode="&#58898;" d="M733.85516357 104.05462646000001c0-26.57318115-21.62933349-48.20251465-48.20251464-48.20251464H338.34735107c-26.57318115 0-48.20251465 21.62933349-48.20251464 48.20251464V615.7428588800001h443.71032714v-511.68823242zM386.54986573 702.26019287c0 5.56182862 4.3258667 9.88769531 9.88769531 9.88769531h231.74285888c5.56182862 0 9.88769531-4.3258667 9.88769531-9.88769531v-29.04510498H386.54986573V702.26019287z m491.91284179-29.04510498H695.54034424V702.26019287c0 37.07885742-30.2810669 67.35992432-67.35992432 67.35992432h-231.74285888c-37.07885742 0-67.35992432-30.2810669-67.35992432-67.35992432v-29.04510498H145.53729248C129.4697876 673.21508789 116.4921875 660.2374877899999 116.4921875 644.16998291s12.9776001-29.04510498 29.04510498-29.04510498h86.51733398v-511.07025147c0-58.70819092 47.58453369-106.29272461 106.29272461-106.29272461h347.30529786c58.70819092 0 106.29272461 47.58453369 106.29272461 106.29272461V615.7428588800001h86.51733398c16.06750489 0 29.04510498 12.9776001 29.04510498 29.04510499s-12.9776001 28.42712403-29.04510498 28.42712402zM512 142.98742675000005c16.06750489 0 29.04510498 12.9776001 29.04510498 29.04510499v308.99047852c0 16.06750489-12.9776001 29.04510498-29.04510498 29.04510497s-29.04510498-12.9776001-29.04510498-29.04510497v-308.99047852c0-16.06750489 12.9776001-29.04510498 29.04510498-29.04510498m-135.33782959 0c16.06750489 0 29.04510498 12.9776001 29.04510498 29.04510498v308.99047852c0 16.06750489-12.9776001 29.04510498-29.04510498 29.04510497s-29.04510498-12.9776001-29.04510498-29.04510497v-308.99047852c0.61798096-16.06750489 13.59558106-29.04510498 29.04510498-29.04510498m270.67565918 0c16.06750489 0 29.04510498 12.9776001 29.04510499 29.04510498v308.99047852c0 16.06750489-12.9776001 29.04510498-29.04510499 29.04510497s-29.04510498-12.9776001-29.04510498-29.04510497v-308.99047852c0-16.06750489 12.9776001-29.04510498 29.04510498-29.04510498"  horiz-adv-x="1024" />

    
    <glyph glyph-name="location3" unicode="&#58890;" d="M512.103132 575.879021a106.221743 106.221743 0 1 0-75.507022-31.354611A106.221743 106.221743 0 0 0 512.103132 575.879021m0 63.989002a170.850635 170.850635 0 1 1 120.939214-49.911422A169.570855 169.570855 0 0 1 512.103132 639.868023zM805.172761 771.685367a407.609942 407.609942 0 0 1-586.139257 0 431.285873 431.285873 0 0 1 0-599.576948L512.103132-128l293.069629 300.108419a431.285873 431.285873 0 0 1 0 599.576948z m-44.152411-557.344207l-248.917218-255.956007-248.917217 255.956007a365.377201 365.377201 0 0 0 0 508.712565 346.82039 346.82039 0 0 0 497.834435 0 365.377201 365.377201 0 0 0 0-508.712565z"  horiz-adv-x="1024" />

    
    <glyph glyph-name="shanchu2" unicode="&#58902;" d="M799.2 21.6c0-34.4-28-62.4-62.4-62.4H287.2c-34.4 0-62.4 28-62.4 62.4V684h574.4v-662.4zM349.6 796c0 7.2 5.6 12.8 12.8 12.8h300c7.2 0 12.8-5.6 12.8-12.8v-37.6H349.6V796z m636.8-37.6H749.6V796c0 48-39.2 87.2-87.2 87.2h-300c-48 0-87.2-39.2-87.2-87.2v-37.6H37.6C16.8 758.4 0 741.6 0 720.8s16.8-37.6 37.6-37.6h112v-661.6c0-76 61.6-137.6 137.6-137.6h449.6c76 0 137.6 61.6 137.6 137.6V684h112c20.8 0 37.6 16.8 37.6 37.6s-16.8 36.8-37.6 36.8zM512 72c20.8 0 37.6 16.8 37.6 37.6v400c0 20.8-16.8 37.6-37.6 37.6s-37.6-16.8-37.6-37.6v-400c0-20.8 16.8-37.6 37.6-37.6m-175.2 0c20.8 0 37.6 16.8 37.6 37.6v400c0 20.8-16.8 37.6-37.6 37.6s-37.6-16.8-37.6-37.6v-400c0.8-20.8 17.6-37.6 37.6-37.6m350.4 0c20.8 0 37.6 16.8 37.6 37.6v400c0 20.8-16.8 37.6-37.6 37.6s-37.6-16.8-37.6-37.6v-400c0-20.8 16.8-37.6 37.6-37.6"  horiz-adv-x="1024" />

    
    <glyph glyph-name="del" unicode="&#59873;" d="M733.85516357 104.05462646000001c0-26.57318115-21.62933349-48.20251465-48.20251464-48.20251464H338.34735107c-26.57318115 0-48.20251465 21.62933349-48.20251464 48.20251464V615.7428588800001h443.71032714v-511.68823242zM386.54986573 702.26019287c0 5.56182862 4.3258667 9.88769531 9.88769531 9.88769531h231.74285888c5.56182862 0 9.88769531-4.3258667 9.88769531-9.88769531v-29.04510498H386.54986573V702.26019287z m491.91284179-29.04510498H695.54034424V702.26019287c0 37.07885742-30.2810669 67.35992432-67.35992432 67.35992432h-231.74285888c-37.07885742 0-67.35992432-30.2810669-67.35992432-67.35992432v-29.04510498H145.53729248C129.4697876 673.21508789 116.4921875 660.2374877899999 116.4921875 644.16998291s12.9776001-29.04510498 29.04510498-29.04510498h86.51733398v-511.07025147c0-58.70819092 47.58453369-106.29272461 106.29272461-106.29272461h347.30529786c58.70819092 0 106.29272461 47.58453369 106.29272461 106.29272461V615.7428588800001h86.51733398c16.06750489 0 29.04510498 12.9776001 29.04510498 29.04510499s-12.9776001 28.42712403-29.04510498 28.42712402zM512 142.98742675000005c16.06750489 0 29.04510498 12.9776001 29.04510498 29.04510499v308.99047852c0 16.06750489-12.9776001 29.04510498-29.04510498 29.04510497s-29.04510498-12.9776001-29.04510498-29.04510497v-308.99047852c0-16.06750489 12.9776001-29.04510498 29.04510498-29.04510498m-135.33782959 0c16.06750489 0 29.04510498 12.9776001 29.04510498 29.04510498v308.99047852c0 16.06750489-12.9776001 29.04510498-29.04510498 29.04510497s-29.04510498-12.9776001-29.04510498-29.04510497v-308.99047852c0.61798096-16.06750489 13.59558106-29.04510498 29.04510498-29.04510498m270.67565918 0c16.06750489 0 29.04510498 12.9776001 29.04510499 29.04510498v308.99047852c0 16.06750489-12.9776001 29.04510498-29.04510499 29.04510497s-29.04510498-12.9776001-29.04510498-29.04510497v-308.99047852c0-16.06750489 12.9776001-29.04510498 29.04510498-29.04510498"  horiz-adv-x="1024" />

    
    <glyph glyph-name="location4" unicode="&#58891;" d="M512.103132 575.879021a106.221743 106.221743 0 1 0-75.507022-31.354611A106.221743 106.221743 0 0 0 512.103132 575.879021m0 63.989002a170.850635 170.850635 0 1 1 120.939214-49.911422A169.570855 169.570855 0 0 1 512.103132 639.868023zM805.172761 771.685367a407.609942 407.609942 0 0 1-586.139257 0 431.285873 431.285873 0 0 1 0-599.576948L512.103132-128l293.069629 300.108419a431.285873 431.285873 0 0 1 0 599.576948z m-44.152411-557.344207l-248.917218-255.956007-248.917217 255.956007a365.377201 365.377201 0 0 0 0 508.712565 346.82039 346.82039 0 0 0 497.834435 0 365.377201 365.377201 0 0 0 0-508.712565z"  horiz-adv-x="1024" />

    
    <glyph glyph-name="shanchu3" unicode="&#58933;" d="M778.487 746.6H246.97c-48.935 0-88.586-39.648-88.586-88.583v-29.528H867.07v29.528c0.001 48.935-39.65 88.583-88.585 88.583M623.75 805.655l13.034-93.196h-248.11l13.034 93.196H623.75m7.093 59.056H394.617c-24.368 0-47.034-19.724-50.436-43.889l-17.274-123.559c-3.374-24.133 13.813-43.859 38.181-43.859h295.285c24.367 0 41.554 19.724 38.152 43.888l-17.274 123.56c-3.376 24.136-26.041 43.859-50.408 43.859m162.409-295.275H232.207c-32.47 0-56.665-26.47-53.723-58.824l48.389-531.955c2.912-32.354 31.922-58.824 64.391-58.824h442.931c32.47 0 61.48 26.472 64.391 58.824l48.388 531.956c2.94 32.352-21.253 58.823-53.722 58.823M394.614 37.941h-88.587L276.5 451.325h118.115v-413.384z m177.172 0H453.672V451.325h118.115v-413.384z m147.643 0h-88.587V451.325h118.114L719.43 37.941z"  horiz-adv-x="1024" />

    
    <glyph glyph-name="fanhui1" unicode="&#58892;" d="M766.86222222-125.72444444999996c-10.24 0-20.59377778 3.64088889-28.44444444 10.92266667L228.69333333 357.60355555c-15.70133333 14.56355555-15.70133333 38.22933333 0 52.7928889L738.41777778 882.80177778c15.70133333 14.56355555 41.18755555 14.56355555 56.88888889 0 15.70133333-14.56355555 15.70133333-38.22933333 0-52.79288889L314.02666667 384l481.28-446.00888889c15.70133333-14.56355555 15.70133333-38.22933333 0-52.79288889-7.85066667-7.28177778-18.20444445-10.92266667-28.44444445-10.92266667z"  horiz-adv-x="1024" />

    
    <glyph glyph-name="fanhui" unicode="&#58893;" d="M736-64c-9 0-18.1 3.2-25 9.6L263 360.79999999999995c-13.8 12.8-13.8 33.6 0 46.4L711 822.4c13.8 12.8 36.2 12.8 50 0 13.8-12.8 13.8-33.6 0-46.4L337.99999999 384l423.00000001-392c13.8-12.8 13.8-33.6 0-46.4-6.9-6.4-16-9.6-25-9.6z"  horiz-adv-x="1024" />

    
    <glyph glyph-name="fanhui2" unicode="&#58894;" d="M766.86222222-125.72444444999996c-10.24 0-20.59377778 3.64088889-28.44444444 10.92266667L228.69333333 357.60355555c-15.70133333 14.56355555-15.70133333 38.22933333 0 52.7928889L738.41777778 882.80177778c15.70133333 14.56355555 41.18755555 14.56355555 56.88888889 0 15.70133333-14.56355555 15.70133333-38.22933333 0-52.79288889L314.02666667 384l481.28-446.00888889c15.70133333-14.56355555 15.70133333-38.22933333 0-52.79288889-7.85066667-7.28177778-18.20444445-10.92266667-28.44444445-10.92266667z"  horiz-adv-x="1024" />

    
    <glyph glyph-name="del1" unicode="&#58895;" d="M512 423.33173089L367.84855732 567.515625a27.81129776 27.81129776 0 1 1-39.33173008-39.33173089L472.63581768 384l-144.18389492-144.15144268a27.81129776 27.81129776 0 1 1 39.3317309-39.33173008L512 344.63581767999995l144.15144268-144.18389492a27.81129776 27.81129776 0 1 1 39.33173008 39.3317309L551.36418232 384l144.18389492 144.15144268a27.81129776 27.81129776 0 1 1-39.3317309 39.33173008L512 423.36418232z"  horiz-adv-x="1024" />

    
    <glyph glyph-name="fanhui3" unicode="&#58904;" d="M766.976-125.952c-10.24 0-20.48 3.584-28.672 10.752L228.352 357.376c-15.872 14.336-15.872 38.4 0 52.736L738.304 882.688c15.872 14.336 40.96 14.336 56.832 0s15.872-38.4 0-52.736L313.856 384l481.28-445.952c15.872-14.336 15.872-38.4 0-52.736-7.68-7.168-17.92-11.264-28.16-11.264z"  horiz-adv-x="1024" />

    
    <glyph glyph-name="shanchu4" unicode="&#58926;" d="M733.855 104.055c0-26.574-21.63-48.203-48.202-48.203H338.347c-26.573 0-48.202 21.63-48.202 48.203V615.743h443.71v-511.688zM386.55 702.26c0 5.562 4.326 9.888 9.888 9.888H628.18c5.562 0 9.888-4.326 9.888-9.888v-29.045H386.55V702.26z m491.913-29.045H695.54V702.26c0 37.08-30.28 67.36-67.36 67.36H396.438c-37.08 0-67.36-30.28-67.36-67.36v-29.045h-183.54c-16.068 0-29.046-12.978-29.046-29.045s12.978-29.045 29.045-29.045h86.518v-511.07c0-58.709 47.584-106.293 106.292-106.293h347.306c58.708 0 106.292 47.584 106.292 106.293V615.743h86.518c16.067 0 29.045 12.977 29.045 29.045s-12.978 28.427-29.045 28.427zM512 142.987c16.068 0 29.045 12.978 29.045 29.046v308.99c0 16.068-12.977 29.045-29.045 29.045s-29.045-12.977-29.045-29.045v-308.99c0-16.068 12.977-29.046 29.045-29.046m-135.338 0c16.068 0 29.045 12.978 29.045 29.046v308.99c0 16.068-12.977 29.045-29.045 29.045s-29.045-12.977-29.045-29.045v-308.99c0.618-16.068 13.596-29.046 29.045-29.046m270.676 0c16.067 0 29.045 12.978 29.045 29.046v308.99c0 16.068-12.978 29.045-29.045 29.045s-29.045-12.977-29.045-29.045v-308.99c0-16.068 12.977-29.046 29.045-29.046"  horiz-adv-x="1024" />

    
    <glyph glyph-name="location5" unicode="&#58896;" d="M512.103132 575.879021a106.221743 106.221743 0 1 0-75.507022-31.354611A106.221743 106.221743 0 0 0 512.103132 575.879021m0 63.989002a170.850635 170.850635 0 1 1 120.939214-49.911422A169.570855 169.570855 0 0 1 512.103132 639.868023zM805.172761 771.685367a407.609942 407.609942 0 0 1-586.139257 0 431.285873 431.285873 0 0 1 0-599.576948L512.103132-128l293.069629 300.108419a431.285873 431.285873 0 0 1 0 599.576948z m-44.152411-557.344207l-248.917218-255.956007-248.917217 255.956007a365.377201 365.377201 0 0 0 0 508.712565 346.82039 346.82039 0 0 0 497.834435 0 365.377201 365.377201 0 0 0 0-508.712565z"  horiz-adv-x="1024" />

    
    <glyph glyph-name="location6" unicode="&#58897;" d="M512.09668625 563.88658219a99.58288406 99.58288406 0 1 0-70.78783313-29.39494782A99.58288406 99.58288406 0 0 0 512.09668625 563.88658219m0 59.98968937a160.17247031 160.17247031 0 1 1 113.38051313-46.79195812A158.97267656 158.97267656 0 0 1 512.09668625 623.8762715600001zM786.84946344 747.45503156a382.13432062 382.13432062 0 0 1-549.50555344 0 404.33050594 404.33050594 0 0 1 0-562.10338875L512.09668625-96l274.75277719 281.35164281a404.33050594 404.33050594 0 0 1 0 562.10338875z m-41.39288532-522.51019406l-233.35989187-239.95875656-233.35989094 239.95875656a342.54112594 342.54112594 0 0 0 0 476.91802969 325.14411562 325.14411562 0 0 0 466.71978282 0 342.54112594 342.54112594 0 0 0 0-476.91802969z"  horiz-adv-x="1024" />

    
    <glyph glyph-name="fanhui4" unicode="&#58905;" d="M674.22000122 59.559997560000056c-6.5177679 0-13.10795546 2.31742859-18.10491084 6.95228577L331.67508793 367.19864271999995c-9.99391079 9.26971435-9.99391079 24.33300019 0 33.60271456L656.11509038 701.48771667c9.99391079 9.26971435 26.21591092 9.26971435 36.20982169 0 9.99391079-9.26971435 9.99391079-24.33300019 0-33.60271454L385.98982048 384l306.33509159-283.88500214c9.99391079-9.26971435 9.99391079-24.33300019 0-33.60271453-4.9969554-4.63485718-11.58714294-6.95228576-18.10491085-6.95228577z"  horiz-adv-x="1024" />

    
    <glyph glyph-name="dingwei1" unicode="&#58907;" d="M512.09668625 563.88658219a99.58288406 99.58288406 0 1 0-70.78783313-29.39494782A99.58288406 99.58288406 0 0 0 512.09668625 563.88658219m0 59.98968937a160.17247031 160.17247031 0 1 1 113.38051313-46.79195812A158.97267656 158.97267656 0 0 1 512.09668625 623.8762715600001zM786.84946344 747.45503156a382.13432062 382.13432062 0 0 1-549.50555344 0 404.33050594 404.33050594 0 0 1 0-562.10338875L512.09668625-96l274.75277719 281.35164281a404.33050594 404.33050594 0 0 1 0 562.10338875z m-41.39288532-522.51019406l-233.35989187-239.95875656-233.35989094 239.95875656a342.54112594 342.54112594 0 0 0 0 476.91802969 325.14411562 325.14411562 0 0 0 466.71978282 0 342.54112594 342.54112594 0 0 0 0-476.91802969z"  horiz-adv-x="1024" />

    
    <glyph glyph-name="toright-copy" unicode="&#58908;" d="M960 608c0-9-3.2-18.1-9.6-25L535.2 135c-12.8-13.8-33.6-13.8-46.4 0L73.6 583c-12.8 13.8-12.8 36.2 0 50 12.8 13.8 33.6 13.8 46.4 0L512 209.99999999l392 423.00000001c12.8 13.8 33.6 13.8 46.4 0 6.4-6.9 9.6-16 9.6-25z"  horiz-adv-x="1024" />

    
    <glyph glyph-name="sousuo4" unicode="&#58993;" d="M463.238095-30.47619a463.238095 463.238095 0 1 0 0 926.47619 463.238095 463.238095 0 0 0 0-926.47619z m0 88.259047a374.979048 374.979048 0 1 1 0 749.958095 374.979048 374.979048 0 0 1 0-749.958095zM743.765333 92.696381a42.081524 42.081524 0 0 0 59.489524 59.538286l208.408381-208.359619a42.081524 42.081524 0 0 0-59.489524-59.538286l-208.408381 208.359619z"  horiz-adv-x="1024" />

    
    <glyph glyph-name="fenxiang13" unicode="&#58909;" d="M769.714 306.453c-51.754 0-97.702-24.851-126.571-63.269L394.479 367.941c3.93 13.798 6.034 28.364 6.034 43.424 0 16.496-2.527 32.399-7.211 47.35l247.724 124.288c28.71-40.052 75.647-66.151 128.687-66.151 87.388 0 158.229 70.84 158.229 158.229 0 87.388-70.841 158.229-158.229 158.229-87.389 0-158.229-70.841-158.229-158.229a160.2 160.2 0 0 1 1.011-17.88L351.22 526.116c-28.371 26.943-66.723 43.479-108.938 43.479-87.388 0-158.229-70.84-158.229-158.229s70.84-158.229 158.229-158.229c43.752 0 83.354 17.758 111.997 46.459l258.676-129.779a159.534 159.534 0 0 1-1.474-21.592c0-87.389 70.84-158.229 158.229-158.229s158.229 70.84 158.229 158.229c-0.001 87.387-70.836 158.228-158.225 158.228z"  horiz-adv-x="1024" />

    
    <glyph glyph-name="sousuo5" unicode="&#58910;" d="M950.784-3.584L782.336 164.352c64.512 74.752 99.84 168.96 99.84 268.8 0 110.08-43.008 212.992-120.32 290.816S581.12 844.8 471.552 844.8c-110.08 0-212.992-43.008-290.816-120.32-77.824-77.824-120.832-181.248-120.832-291.328s43.008-212.992 120.32-290.816c77.824-77.824 181.248-120.32 290.816-120.32 90.624 0 177.152 29.184 248.32 82.944l169.984-169.984c8.192-8.192 19.456-12.8 30.72-12.8s22.016 4.096 30.72 12.8c16.896 16.896 16.896 44.544 0 61.44zM146.432 433.152c0 179.2 145.92 324.608 324.608 324.608 179.2 0 324.608-145.92 324.608-324.608 0-179.2-145.408-324.608-324.608-324.608s-324.608 145.92-324.608 324.608z"  horiz-adv-x="1024" />

    
    <glyph glyph-name="fanhui5" unicode="&#58911;" d="M766.862-125.72400000000005c-10.24 0-20.594 3.64-28.444 10.922L228.693 357.60400000000004c-15.701 14.563-15.701 38.229 0 52.792L738.418 882.802c15.701 14.563 41.187 14.563 56.889 0 15.701-14.564 15.701-38.23 0-52.793L314.027 384l481.28-446.009c15.701-14.563 15.701-38.23 0-52.793-7.851-7.282-18.205-10.922-28.445-10.922z"  horiz-adv-x="1024" />

    


  </font>
</defs>
</svg>
